<svg width="48" height="48" viewBox="0 0 48 48" fill="none" xmlns="http://www.w3.org/2000/svg">
<path d="M38.375 24C38.375 34.6861 30.2071 43.25 20.25 43.25C10.2929 43.25 2.125 34.6861 2.125 24C2.125 13.3139 10.2929 4.75 20.25 4.75C30.2071 4.75 38.375 13.3139 38.375 24Z" stroke="#152C5B" stroke-width="2"/>
<path d="M22.5 18.625C22.5 17.2443 23.6193 16.125 25 16.125H38C39.3807 16.125 40.5 17.2443 40.5 18.625V29.375C40.5 30.7557 39.3807 31.875 38 31.875H27.5C24.7386 31.875 22.5 29.6364 22.5 26.875V18.625Z" fill="#152C5B"/>
<path d="M18 18.625C18 17.2443 16.8807 16.125 15.5 16.125H2.5C1.11929 16.125 0 17.2443 0 18.625V29.375C0 30.7557 1.11929 31.875 2.5 31.875H13C15.7614 31.875 18 29.6364 18 26.875V18.625Z" fill="#152C5B"/>
<line x1="16.875" y1="24.125" x2="23.625" y2="24.125" stroke="#152C5B" stroke-width="2"/>
<path d="M14.625 34.125V34.125C16.0855 35.2204 17.8619 35.8125 19.6875 35.8125H20.25H20.2927C22.1051 35.8125 23.8835 35.3199 25.4376 34.3874L25.875 34.125" stroke="#152C5B" stroke-width="2"/>
</svg>
