<svg width="48" height="48" viewBox="0 0 48 48" fill="none" xmlns="http://www.w3.org/2000/svg">
<path fill-rule="evenodd" clip-rule="evenodd" d="M20.0655 6.04437C19.8659 5.8111 19.5052 5.8111 19.3057 6.04437L2.38151 25.8257C2.10394 26.1502 2.33447 26.6508 2.76143 26.6508H6.51652L0.0708572 35.325C-0.17428 35.6549 0.0611853 36.1232 0.472185 36.1232H39.153C39.564 36.1232 39.7995 35.6549 39.5543 35.325L33.1087 26.6508H36.6097C37.0367 26.6508 37.2672 26.1502 36.9896 25.8257L20.0655 6.04437Z" fill="#152C5B"/>
<path d="M32.6654 42.4341C33.4204 42.4325 34.0357 43.0433 34.0398 43.7982V43.7982C34.044 44.5532 33.4353 45.1664 32.6803 45.1679L6.83247 45.2206C6.07752 45.2222 5.46217 44.6114 5.45805 43.8565V43.8565C5.45393 43.1015 6.0626 42.4883 6.81755 42.4867L32.6654 42.4341Z" fill="#152C5B"/>
<rect x="17.2938" y="28.4047" width="5.21287" height="14.0337" fill="#152C5B"/>
</svg>
