<svg width="48" height="48" viewBox="0 0 48 48" fill="none" xmlns="http://www.w3.org/2000/svg">
<path fill-rule="evenodd" clip-rule="evenodd" d="M10.218 17.1133C9.60256 17.1876 8.9921 17.3167 8.39401 17.5007C3.99914 18.8525 1 22.9127 1 27.5108V27.8282H21.9459V27.5108C21.9459 23.1411 19.2373 19.257 15.1961 17.7218C14.8848 15.4483 15.9532 13.1927 17.9348 11.9985C19.8682 10.8333 22.3035 10.9026 24.1676 12.1757L24.3101 12.2731C25.9576 13.3984 26.9431 15.2647 26.9431 17.2599V19.1555H27V41H32V19.1555V18.3653V17.6725C32 14.3765 30.7584 11.2014 28.5225 8.77973L28.0474 8.26512C27.0637 7.19972 25.859 6.36232 24.5176 5.81159L24.1468 5.65933C22.1862 4.85435 20.002 4.77858 17.9903 5.44576C16.4668 5.95102 15.1092 6.86048 14.0622 8.07707L13.3356 8.92139C11.3699 11.2056 10.2682 14.1046 10.218 17.1133Z" fill="#152C5B"/>
<circle cx="5.5" cy="33.5" r="2.5" fill="#152C5B"/>
<circle cx="11.5" cy="38.5" r="2.5" fill="#152C5B"/>
<circle cx="17.5" cy="33.5" r="2.5" fill="#152C5B"/>
</svg>
