<svg width="48" height="48" viewBox="0 0 48 48" fill="none" xmlns="http://www.w3.org/2000/svg">
<rect y="17.5217" width="42.2222" height="7.82609" rx="1" fill="#152C5B"/>
<path d="M8.20988 11H34.5988L41.0494 15.5652H1.17284L8.20988 11Z" fill="#152C5B"/>
<path d="M2.34568 26.6522H4.69136V40.5C4.69136 40.7761 4.4675 41 4.19136 41H2.84568C2.56954 41 2.34568 40.7761 2.34568 40.5V26.6522Z" fill="#152C5B"/>
<path d="M8.20988 26.6522H10.5556V33.9783C10.5556 34.2544 10.3317 34.4783 10.0556 34.4783H8.70988C8.43373 34.4783 8.20988 34.2544 8.20988 33.9783V26.6522Z" fill="#152C5B"/>
<path d="M31.6667 26.6522H34.0123V33.9783C34.0123 34.2544 33.7885 34.4783 33.5123 34.4783H32.1667C31.8905 34.4783 31.6667 34.2544 31.6667 33.9783V26.6522Z" fill="#152C5B"/>
<path d="M37.5309 26.6522H39.8765V40.5C39.8765 40.7761 39.6527 41 39.3765 41H38.0309C37.7547 41 37.5309 40.7761 37.5309 40.5V26.6522Z" fill="#152C5B"/>
</svg>
