<svg width="48" height="48" viewBox="0 0 48 48" fill="none" xmlns="http://www.w3.org/2000/svg">
<path d="M15.7542 35.7935H19.2717V40C19.2717 40.5523 18.824 41 18.2717 41H16.7542C16.2019 41 15.7542 40.5523 15.7542 40V35.7935Z" fill="#152C5B"/>
<path d="M31.5831 35.7935H35.1006V40C35.1006 40.5523 34.6529 41 34.1006 41H32.5831C32.0308 41 31.5831 40.5523 31.5831 40V35.7935Z" fill="#152C5B"/>
<rect x="11.9854" y="14.9674" width="26.3815" height="14.0142" rx="5" fill="#152C5B"/>
<path d="M11.9854 21.6057H12.1928C15.5065 21.6057 18.1928 24.292 18.1928 27.6057V28.9816H11.9854V21.6057Z" fill="white"/>
<path d="M38.3669 21.6057H38.1595C34.8458 21.6057 32.1595 24.292 32.1595 27.6057V28.9816H38.3669V21.6057Z" fill="white"/>
<path d="M10.101 30.587H40V37.3968C40 37.949 39.5523 38.3968 39 38.3968H11.101C10.5487 38.3968 10.101 37.949 10.101 37.3968V30.587Z" fill="#152C5B"/>
<rect x="10.101" y="23.0809" width="5.9798" height="14.7518" rx="2.9899" fill="#152C5B"/>
<rect x="34.0202" y="23.0809" width="5.9798" height="14.7518" rx="2.9899" fill="#152C5B"/>
<path d="M6.06061 16.9642C6.06061 16.4119 6.50832 15.9642 7.06061 15.9642H7.08081C7.6331 15.9642 8.08081 16.4119 8.08081 16.9642V40.3827C8.08081 40.6589 7.85695 40.8827 7.58081 40.8827H6.56061C6.28447 40.8827 6.06061 40.6589 6.06061 40.3827V16.9642Z" fill="#152C5B"/>
<path d="M2.51848 5.73678C2.63717 5.30177 3.0323 5 3.48322 5H10.6582C11.1091 5 11.5042 5.30177 11.6229 5.73678L13.7968 13.7042C13.9703 14.3404 13.4914 14.9674 12.832 14.9674H1.30939C0.649976 14.9674 0.171085 14.3404 0.344655 13.7042L2.51848 5.73678Z" fill="#152C5B"/>
</svg>
