<svg width="48" height="48" viewBox="0 0 48 48" fill="none" xmlns="http://www.w3.org/2000/svg">
<path fill-rule="evenodd" clip-rule="evenodd" d="M0 7.50241C0 7.22627 0.223858 7.00241 0.5 7.00241H37.5C37.7761 7.00241 38 7.22627 38 7.50241V33.444C38 33.7201 37.7761 33.944 37.5 33.944H20.1875V37.6533L32.4122 39.6631C32.8954 39.7426 33.25 40.1602 33.25 40.6499V41.0127C33.25 41.6135 32.7239 42.0787 32.1276 42.0052L19.1224 40.4016C19.0411 40.3916 18.9589 40.3916 18.8776 40.4016L5.87237 42.0052C5.27606 42.0787 4.75 41.6135 4.75 41.0127V40.6499C4.75 40.1602 5.10459 39.7426 5.58777 39.6631L17.8125 37.6533V33.944H0.5C0.223858 33.944 0 33.7201 0 33.444V7.50241Z" fill="#152C5B"/>
<rect x="2.375" y="9.34516" width="33.25" height="21.0847" fill="white"/>
<ellipse cx="19" cy="28.0871" rx="1.1875" ry="1.17137" fill="#152C5B"/>
</svg>
